<svg width="48" height="48" viewBox="0 0 24 24" fill="none" xmlns="http://www.w3.org/2000/svg">
  <path d="M17.8 2.1C17.4 2.1 17 2.3 16.7 2.6L15.2 4.1C14.9 4.4 14.7 4.8 14.7 5.2C14.7 5.6 14.9 6 15.2 6.3L16.7 7.8C17 8.1 17.4 8.3 17.8 8.3C18.2 8.3 18.6 8.1 18.9 7.8L20.4 6.3C20.7 6 20.9 5.6 20.9 5.2C20.9 4.8 20.7 4.4 20.4 4.1L18.9 2.6C18.6 2.3 18.2 2.1 17.8 2.1Z" fill="#4A7C59"/>
  <path d="M12 3C8.1 3 5 6.1 5 10C5 13.9 8.1 17 12 17C15.9 17 19 13.9 19 10C19 6.1 15.9 3 12 3ZM12 15C9.2 15 7 12.8 7 10C7 7.2 9.2 5 12 5C14.8 5 17 7.2 17 10C17 12.8 14.8 15 12 15Z" fill="#4A7C59"/>
  <path d="M12 7C10.3 7 9 8.3 9 10C9 11.7 10.3 13 12 13C13.7 13 15 11.7 15 10C15 8.3 13.7 7 12 7ZM12 11C11.4 11 11 10.6 11 10C11 9.4 11.4 9 12 9C12.6 9 13 9.4 13 10C13 10.6 12.6 11 12 11Z" fill="#4A7C59"/>
  <path d="M6.2 18.1C5.8 18.1 5.4 18.3 5.1 18.6L3.6 20.1C3.3 20.4 3.1 20.8 3.1 21.2C3.1 21.6 3.3 22 3.6 22.3L5.1 23.8C5.4 24.1 5.8 24.3 6.2 24.3C6.6 24.3 7 24.1 7.3 23.8L8.8 22.3C9.1 22 9.3 21.6 9.3 21.2C9.3 20.8 9.1 20.4 8.8 20.1L7.3 18.6C7 18.3 6.6 18.1 6.2 18.1Z" fill="#4A7C59"/>
</svg>
