<?xml version="1.0" standalone="no"?>
<!DOCTYPE svg PUBLIC "-//W3C//DTD SVG 20010904//EN"
 "http://www.w3.org/TR/2001/REC-SVG-20010904/DTD/svg10.dtd">
<svg version="1.0" xmlns="http://www.w3.org/2000/svg"
 width="292.000000pt" height="404.000000pt" viewBox="0 0 292.000000 404.000000"
 preserveAspectRatio="xMidYMid meet">

<g transform="translate(0.000000,404.000000) scale(0.100000,-0.100000)"
fill="#0F4C5C" stroke="none">
<path d="M1381 3783 c-20 -21 -52 -58 -71 -82 -19 -25 -47 -58 -62 -73 -47
-50 -193 -230 -276 -343 -45 -60 -109 -146 -141 -190 -89 -119 -241 -350 -322
-488 -40 -67 -84 -143 -99 -168 -31 -51 -160 -312 -160 -322 0 -4 -9 -26 -19
-50 -23 -49 -92 -248 -114 -327 -31 -110 -41 -188 -40 -325 1 -168 25 -296 83
-451 80 -214 169 -355 314 -499 181 -179 445 -328 650 -366 50 -9 60 -8 77 7
11 10 19 30 19 50 0 41 -19 55 -119 84 -41 12 -98 33 -127 46 -29 13 -57 24
-61 24 -14 0 -201 116 -236 147 -73 64 -205 203 -245 259 -61 85 -146 264
-176 369 -83 297 -47 605 111 955 103 228 183 377 328 614 36 59 189 291 200
302 5 6 17 22 25 34 8 13 38 52 65 89 28 36 58 77 67 91 9 14 30 40 46 59 17
19 36 45 44 59 7 14 26 39 43 57 36 38 97 111 128 153 57 77 113 142 123 142
7 0 26 -17 44 -37 18 -21 46 -54 64 -74 68 -78 142 -169 268 -334 50 -66 104
-135 120 -153 15 -18 28 -37 28 -43 0 -5 19 -36 43 -68 54 -76 57 -81 119
-176 28 -44 59 -91 68 -105 9 -14 37 -59 62 -100 193 -323 331 -634 385 -865
57 -250 36 -521 -58 -738 -35 -81 -115 -221 -135 -238 -8 -6 -14 -16 -14 -22
0 -17 -171 -186 -250 -246 -127 -96 -182 -126 -340 -181 -122 -42 -193 -49
-240 -24 -87 47 -106 108 -96 298 4 65 9 123 12 127 3 5 17 9 32 9 28 0 122
28 184 54 95 40 259 187 305 272 97 181 123 277 123 459 0 142 -40 355 -85
450 -8 17 -30 64 -49 105 -45 96 -144 263 -166 280 -3 3 -17 23 -30 45 -32 54
-62 92 -142 180 -38 41 -68 79 -68 84 0 6 -4 11 -9 11 -5 0 -40 32 -78 70
-103 105 -79 116 -330 -159 -51 -55 -120 -144 -193 -247 -89 -126 -208 -372
-256 -529 -26 -84 -28 -102 -27 -265 0 -202 14 -273 82 -408 37 -73 134 -206
178 -242 45 -38 112 -79 163 -100 30 -13 60 -26 65 -30 6 -4 37 -12 70 -19 33
-7 65 -15 71 -16 8 -3 13 -58 16 -177 3 -161 5 -177 29 -228 28 -60 107 -136
167 -160 38 -15 223 -10 244 7 7 6 29 14 48 18 63 12 218 87 320 153 177 115
345 284 425 427 55 99 82 151 87 170 4 11 16 45 28 75 53 133 72 236 77 420 4
138 2 194 -12 265 -17 91 -94 341 -120 392 -8 16 -15 32 -15 36 0 41 -270 557
-291 557 -5 0 -9 7 -9 15 0 16 -12 37 -106 179 -33 49 -63 96 -69 104 -48 75
-111 169 -120 179 -5 7 -28 37 -50 68 -53 74 -138 182 -175 223 -17 18 -30 39
-30 47 0 8 -8 20 -18 27 -9 7 -33 33 -52 58 -18 25 -41 52 -49 61 -9 9 -43 47
-76 84 -157 177 -163 180 -224 118z m214 -1367 c28 -33 77 -97 109 -141 33
-44 66 -84 73 -88 7 -4 13 -13 13 -19 0 -6 17 -38 39 -72 54 -86 89 -157 127
-261 l34 -90 -237 -237 c-130 -130 -240 -235 -243 -233 -4 2 -8 81 -9 176 l-2
172 115 117 c122 123 132 142 100 188 -26 38 -62 28 -134 -37 -36 -33 -66 -58
-67 -57 -2 2 -5 623 -4 654 1 20 30 -4 86 -72z m-225 -251 c0 -179 -3 -325 -7
-325 -3 0 -32 25 -64 55 -39 37 -66 55 -83 55 -30 0 -66 -32 -66 -59 0 -24 52
-89 144 -181 l76 -75 1 -140 c0 -77 1 -157 3 -177 2 -23 -2 -38 -8 -38 -6 0
-114 104 -240 230 l-230 230 18 58 c37 116 191 399 251 458 7 8 23 30 36 51
13 21 43 58 67 83 24 25 50 57 58 73 8 15 21 27 29 27 13 0 15 -45 15 -325z
m-238 -848 l238 -237 0 -135 c0 -73 -4 -136 -9 -139 -13 -9 -135 30 -193 61
-87 46 -187 154 -235 253 -23 47 -49 112 -58 145 -17 65 -32 272 -21 300 8 23
-3 33 278 -248z m899 241 c5 -91 -5 -214 -23 -283 -63 -243 -201 -394 -417
-456 -35 -10 -68 -16 -72 -13 -5 3 -9 65 -9 138 l0 134 253 251 c138 138 255
251 260 251 4 0 8 -10 8 -22z"/>
</g>
</svg>
