<?xml version="1.0" standalone="no"?>
<!DOCTYPE svg PUBLIC "-//W3C//DTD SVG 20010904//EN"
 "http://www.w3.org/TR/2001/REC-SVG-20010904/DTD/svg10.dtd">
<svg version="1.0" xmlns="http://www.w3.org/2000/svg"
 width="732.000000pt" height="684.000000pt" viewBox="0 0 732.000000 684.000000"
 preserveAspectRatio="xMidYMid meet">

<g transform="translate(0.000000,684.000000) scale(0.100000,-0.100000)"
fill="#0F4C5C" stroke="none">
<path d="M3160 6741 l-65 -6 55 -25 c113 -50 203 -101 299 -169 l98 -71 74 0
c196 -1 588 -86 827 -181 509 -201 986 -564 1329 -1009 161 -209 277 -414 398
-705 132 -317 206 -629 222 -929 l6 -129 66 -71 c78 -84 126 -144 166 -208 16
-26 33 -44 37 -42 4 3 8 87 8 188 0 545 -120 1048 -372 1551 -339 679 -939
1245 -1648 1555 -233 102 -474 173 -730 214 -52 9 -124 21 -160 27 -74 12
-513 20 -610 10z"/>
<path d="M2505 6633 c-114 -14 -284 -63 -425 -121 -260 -107 -652 -354 -869
-547 -98 -87 -141 -128 -141 -136 0 -5 88 -9 196 -9 l197 0 56 46 c82 66 81
66 139 107 28 20 55 37 58 37 3 0 20 11 38 25 18 14 36 25 40 25 5 0 20 8 34
19 53 37 152 89 317 166 232 108 418 147 615 127 63 -6 138 -19 165 -27 77
-25 228 -101 266 -135 19 -16 38 -30 43 -30 20 0 163 -152 221 -235 315 -450
352 -1140 93 -1763 -68 -166 -235 -477 -284 -533 -8 -8 -14 -19 -14 -23 0 -5
-20 -37 -45 -73 -25 -35 -45 -66 -45 -68 0 -2 -30 -53 -66 -112 -169 -277
-315 -639 -373 -925 -49 -238 -61 -583 -28 -798 51 -329 166 -606 360 -865
100 -134 321 -309 487 -388 375 -176 830 -139 1320 108 391 197 702 437 1009
779 57 64 233 297 229 302 -2 1 -37 -8 -78 -22 -41 -13 -129 -32 -195 -41
-110 -15 -123 -19 -153 -47 l-33 -31 -1034 2 -1035 1 -64 30 c-122 57 -198
162 -217 299 -16 112 -1 152 176 463 109 193 133 236 165 295 15 28 55 100 90
160 35 61 73 128 85 150 12 22 31 57 43 78 12 20 31 54 43 75 12 20 25 42 29
47 4 6 21 35 37 65 47 87 83 150 124 222 22 36 39 70 39 74 0 4 6 15 14 23 7
9 25 36 38 61 14 25 53 94 88 154 34 60 81 145 103 190 l42 81 1 430 c1 512 1
513 -35 521 -69 15 -92 26 -89 42 3 15 24 18 148 23 210 8 632 0 647 -13 21
-17 -3 -36 -52 -44 -25 -3 -50 -13 -56 -21 -9 -10 -11 -116 -5 -440 8 -487 6
-477 101 -635 30 -49 57 -99 60 -109 4 -11 10 -19 13 -17 4 2 40 16 80 32 39
16 72 34 72 40 0 6 -29 62 -65 124 -39 67 -69 133 -75 161 -5 26 -10 202 -11
391 -1 306 0 344 15 352 55 31 96 105 96 173 -1 47 -42 117 -89 150 l-43 30
-416 3 c-454 3 -479 1 -532 -50 -39 -37 -52 -70 -51 -134 0 -70 15 -102 68
-151 l45 -42 6 -370 5 -369 -48 -94 c-26 -51 -55 -104 -65 -118 -9 -14 -36
-61 -60 -105 -23 -44 -94 -170 -158 -280 -63 -110 -136 -238 -162 -285 -25
-47 -107 -191 -182 -320 -74 -129 -152 -266 -173 -305 -22 -38 -61 -108 -89
-155 -164 -281 -188 -337 -200 -465 -9 -85 11 -199 49 -281 58 -128 167 -225
315 -283 l65 -26 968 -3 c532 -1 967 -6 967 -10 0 -12 -144 -133 -300 -253
-314 -242 -750 -436 -1045 -464 -210 -20 -479 61 -665 201 -126 95 -200 179
-320 364 -48 74 -116 250 -154 395 -47 178 -51 219 -50 470 1 217 3 253 28
378 40 210 109 411 215 629 64 132 157 300 199 360 17 26 32 49 32 52 0 2 22
37 48 78 343 519 496 960 509 1472 8 286 -20 489 -103 747 -132 415 -443 755
-804 879 -36 12 -74 26 -85 31 -67 29 -343 48 -470 32z"/>
<path d="M4740 5980 c-29 -29 -27 -94 2 -114 32 -23 71 -20 96 7 29 31 28 72
-3 102 -29 30 -68 32 -95 5z"/>
<path d="M4375 5842 c-59 -37 -70 -58 -70 -131 0 -75 23 -119 77 -147 36 -19
117 -20 150 -3 95 50 113 170 37 251 -37 40 -43 42 -101 46 -49 2 -70 -1 -93
-16z"/>
<path d="M2982 5759 c-58 -11 -96 -41 -123 -95 -19 -41 -21 -55 -14 -128 12
-135 19 -116 -115 -286 -79 -100 -98 -125 -174 -226 -33 -44 -78 -102 -100
-129 -48 -60 -73 -91 -160 -205 -36 -47 -69 -89 -74 -95 -54 -67 -162 -216
-162 -225 0 -6 32 -10 85 -10 l84 0 72 98 c183 246 244 327 249 332 4 3 33 41
65 85 32 44 61 82 64 85 4 3 31 38 61 78 58 76 90 93 90 46 0 -31 -7 -45 -86
-166 -35 -53 -64 -101 -64 -106 0 -6 -4 -12 -8 -14 -4 -1 -19 -21 -32 -43 -13
-22 -65 -103 -115 -180 -50 -77 -101 -157 -114 -177 l-22 -37 83 5 c46 3 148
12 228 20 128 13 147 18 162 37 10 12 18 26 18 30 0 5 12 34 26 65 15 31 39
84 54 117 15 33 57 122 94 197 36 75 66 139 66 142 0 3 14 35 30 71 17 36 30
68 30 72 0 23 56 73 97 88 96 34 106 39 134 62 62 53 77 148 37 232 -36 73
-153 185 -231 220 -55 25 -165 54 -186 50 -3 -1 -25 -5 -49 -10z"/>
<path d="M610 5635 c-81 -39 -135 -87 -167 -153 -25 -50 -28 -68 -28 -152 0
-82 4 -103 26 -151 31 -67 73 -109 138 -141 41 -21 63 -23 220 -26 l173 -4 -6
-121 c-4 -67 -9 -144 -12 -170 l-6 -49 58 7 c33 4 66 14 74 21 12 12 15 60 15
297 0 268 -1 286 -23 357 -13 41 -35 95 -48 121 -12 26 -20 49 -17 53 4 3 316
6 693 6 738 0 724 1 779 -51 35 -33 63 -104 69 -176 2 -35 9 -63 13 -63 5 0 9
4 9 8 0 5 23 35 51 67 46 53 50 61 44 94 -16 85 -95 184 -183 227 -35 18 -84
19 -927 22 l-890 2 -55 -25z m222 -135 c38 -25 62 -55 72 -87 7 -23 7 -23
-101 -23 -59 0 -113 -4 -119 -8 -6 -4 -17 -18 -23 -30 -18 -34 3 -80 38 -88
47 -10 51 -13 51 -39 0 -35 -42 -75 -77 -75 -103 0 -164 183 -96 288 56 86
177 116 255 62z m122 -287 c12 -58 4 -73 -39 -73 -32 0 -35 2 -35 31 0 39 30
91 50 87 9 -2 19 -21 24 -45z"/>
<path d="M4808 5600 c-35 -27 -51 -72 -46 -124 8 -68 54 -106 128 -106 58 0
97 26 116 77 21 55 8 110 -37 147 -40 34 -123 37 -161 6z"/>
<path d="M4525 5346 c-19 -28 -13 -76 12 -101 19 -20 77 -19 97 1 48 48 19
117 -52 122 -34 3 -43 -1 -57 -22z"/>
<path d="M1322 5144 c-27 -18 -29 -55 -4 -77 17 -15 66 -17 499 -17 452 0 481
1 496 18 23 26 21 58 -5 76 -20 14 -83 16 -493 16 -410 0 -473 -2 -493 -16z"/>
<path d="M417 4908 c-18 -39 -54 -121 -72 -163 -29 -68 -115 -337 -139 -430
-67 -270 -86 -424 -93 -745 -8 -387 19 -612 112 -933 55 -191 107 -341 152
-437 19 -41 39 -85 44 -97 5 -13 13 -23 18 -23 6 0 38 20 73 44 35 24 81 49
103 56 54 17 56 19 45 38 -5 9 -23 51 -40 92 -17 41 -35 84 -40 95 -59 127
-160 539 -185 752 -17 140 -18 468 -4 638 29 325 128 682 284 1020 l14 30 -62
16 c-49 13 -139 49 -188 76 -4 2 -13 -11 -22 -29z"/>
<path d="M1321 4881 c-26 -26 -27 -53 -3 -74 17 -15 63 -17 454 -17 l435 0 20
23 c27 30 46 67 38 75 -4 4 -213 8 -465 10 -453 4 -459 3 -479 -17z"/>
<path d="M1570 4609 c-420 -25 -771 -91 -864 -163 -55 -43 15 -414 112 -596
149 -279 339 -473 591 -603 160 -83 364 -145 483 -148 52 -1 97 -13 83 -21
-56 -33 -330 -36 -434 -3 l-53 16 -28 -26 c-37 -36 -80 -119 -80 -156 0 -27 6
-33 54 -55 130 -59 389 -90 685 -81 237 7 420 34 501 75 51 25 55 30 58 66 4
42 -15 77 -87 160 -54 62 -55 93 -4 135 21 17 41 31 45 31 14 0 170 101 223
143 81 66 162 154 234 256 149 211 224 420 238 662 l6 109 -35 33 c-24 22 -62
42 -114 59 -137 44 -130 45 -153 -8 -33 -73 -32 -74 29 -93 34 -10 55 -22 55
-31 0 -19 -84 -46 -200 -65 -454 -72 -1377 -70 -1819 5 -184 32 -227 59 -140
88 125 42 395 70 757 79 l268 6 33 41 c18 23 41 53 51 69 l17 27 -183 -1
c-101 -1 -249 -6 -329 -10z m-533 -471 c21 -10 32 -30 53 -93 73 -218 243
-448 412 -558 93 -61 111 -107 40 -107 -38 0 -154 58 -232 117 -47 35 -210
193 -210 202 0 3 -14 22 -30 41 -42 48 -122 208 -155 308 -33 103 -27 117 47
109 27 -4 60 -12 75 -19z"/>
<path d="M4550 4280 c-45 -45 -8 -140 55 -140 28 0 66 16 77 34 13 19 9 81 -8
104 -21 30 -95 31 -124 2z"/>
<path d="M5505 3629 c-401 -79 -680 -338 -782 -724 -90 -345 22 -728 286 -978
130 -122 261 -195 437 -244 86 -24 118 -27 239 -28 179 0 274 21 438 98 l89
41 59 -64 c56 -61 59 -67 52 -100 -18 -87 -10 -110 83 -230 396 -509 474 -603
517 -623 42 -20 132 -22 191 -5 53 16 121 84 135 134 26 92 5 164 -70 250 -24
28 -90 106 -145 175 -96 117 -289 353 -337 410 -36 44 -87 69 -139 69 -46 0
-49 2 -97 63 -28 34 -50 67 -51 72 0 6 28 48 62 95 94 131 157 276 178 414 14
89 14 290 -1 369 -35 197 -155 411 -314 560 -101 94 -276 188 -425 227 -97 25
-321 36 -405 19z m341 -194 c184 -41 352 -153 474 -317 147 -198 194 -459 127
-699 -41 -146 -104 -254 -203 -351 -79 -77 -133 -114 -229 -159 -178 -82 -394
-93 -573 -28 -265 96 -460 299 -534 554 -30 106 -33 346 -5 440 47 158 155
316 282 413 76 57 204 124 275 142 110 29 265 31 386 5z"/>
<path d="M5913 3210 c-58 -35 -77 -105 -52 -193 9 -35 8 -41 -18 -70 -15 -18
-35 -43 -44 -57 -15 -23 -17 -24 -73 -11 -69 15 -115 8 -177 -27 l-47 -26 -58
45 c-32 24 -62 47 -67 50 -5 4 -9 20 -9 35 0 54 -41 107 -95 125 -28 9 -43 8
-77 -5 -91 -35 -105 -156 -24 -207 27 -17 44 -19 94 -15 l60 5 61 -50 60 -49
-5 -71 c-3 -51 0 -87 13 -130 l18 -59 -24 -28 c-88 -100 -102 -112 -142 -112
-109 0 -171 -99 -117 -187 24 -40 50 -54 104 -56 79 -3 121 45 118 139 -2 49
0 53 61 119 l63 68 53 -18 c67 -22 156 -16 204 14 19 12 39 21 46 21 6 0 37
-20 69 -44 57 -43 58 -46 58 -93 1 -122 111 -196 216 -144 60 30 82 64 82 126
0 67 -27 114 -84 143 -52 26 -84 28 -124 7 -37 -19 -52 -19 -74 3 -9 9 -34 31
-55 48 -35 28 -36 32 -27 64 22 75 0 200 -39 224 -20 13 -12 33 35 91 44 54
48 56 81 50 73 -13 153 44 167 120 9 48 -26 121 -73 152 -43 29 -113 31 -158
3z m95 -72 c3 -22 -2 -30 -23 -38 -32 -12 -65 2 -65 28 0 27 22 43 55 40 24
-2 31 -8 33 -30z m-338 -342 c17 -22 8 -59 -18 -72 -13 -6 -36 -27 -52 -45
-24 -28 -31 -32 -47 -23 -10 6 -19 21 -21 32 -10 69 99 154 138 108z m444
-418 c15 -24 -3 -52 -37 -56 -18 -2 -29 3 -37 18 -24 45 47 80 74 38z"/>
<path d="M796 3548 c-28 -263 -30 -334 -28 -904 l3 -601 -50 -5 c-91 -9 -173
-66 -219 -153 -25 -45 -27 -60 -27 -160 0 -103 2 -113 29 -160 57 -98 126
-146 237 -165 44 -7 291 -10 784 -8 719 3 720 3 775 25 101 41 167 108 213
216 22 52 22 54 18 547 -2 272 -4 496 -6 498 -4 4 -110 -21 -121 -30 -7 -5 -9
-143 -6 -458 5 -502 5 -508 -58 -582 -80 -93 -209 -100 -305 -16 -70 62 -61
71 72 69 l111 -2 35 31 c20 17 41 47 48 67 22 69 -7 178 -63 230 -57 54 -49
53 -707 53 -465 0 -612 3 -617 12 -4 7 -8 330 -8 718 -1 692 -1 705 -21 725
-11 11 -33 39 -49 63 -16 23 -30 42 -32 42 -1 0 -5 -24 -8 -52z m1084 -1652
c0 -7 -7 -31 -16 -52 -25 -60 -16 -186 19 -248 15 -27 27 -52 27 -57 0 -5
-257 -9 -583 -9 l-584 0 -44 23 c-33 18 -51 37 -71 76 -53 101 -26 213 61 258
l44 23 574 0 c480 0 573 -2 573 -14z m260 4 c22 -12 46 -88 32 -102 -5 -5 -45
-10 -90 -12 -76 -2 -82 -1 -82 17 0 24 36 83 58 97 22 12 59 13 82 0z"/>
<path d="M4705 3555 c-50 -49 -20 -125 48 -125 66 0 91 77 42 125 -31 32 -59
32 -90 0z"/>
<path d="M4330 3281 c-36 -36 -46 -73 -31 -119 22 -73 108 -103 171 -60 61 41
66 124 10 179 -23 24 -37 29 -75 29 -38 0 -52 -5 -75 -29z"/>
<path d="M4455 2863 c-54 -11 -107 -13 -230 -8 -88 4 -184 8 -213 9 l-54 1
-40 -75 c-22 -41 -66 -120 -98 -175 -32 -55 -70 -122 -85 -149 -15 -28 -41
-72 -56 -98 -16 -27 -29 -51 -29 -54 0 -2 -12 -23 -27 -47 -15 -23 -37 -62
-50 -87 -13 -25 -27 -52 -33 -60 -32 -49 -89 -152 -109 -194 -45 -97 -21 -219
57 -287 77 -68 19 -64 960 -67 468 -1 852 1 852 6 0 4 -37 25 -83 45 -88 40
-212 122 -287 191 -210 191 -339 452 -369 748 -5 53 -8 109 -6 125 2 15 6 65
10 111 6 95 13 91 -110 65z m-236 -219 c100 -84 34 -246 -95 -231 -55 6 -99
43 -116 98 -14 49 -4 85 37 126 29 29 39 33 88 33 45 0 61 -5 86 -26z m204
-384 c39 -44 37 -92 -7 -136 -51 -51 -118 -43 -156 18 -29 45 -21 94 21 132
27 24 38 27 73 23 29 -4 49 -15 69 -37z m-518 -295 c16 -15 25 -36 25 -55 0
-38 -39 -80 -74 -80 -31 0 -72 36 -80 70 -3 16 2 38 14 58 16 26 26 32 55 32
25 0 44 -8 60 -25z m697 -64 c4 -3 10 -20 13 -36 7 -36 -10 -61 -47 -70 -57
-14 -94 75 -45 110 21 15 62 13 79 -4z"/>
<path d="M1122 2608 c-17 -17 -15 -63 4 -79 14 -11 109 -14 508 -14 270 -1
501 3 514 7 17 6 22 15 22 41 0 18 -5 38 -12 45 -17 17 -1019 17 -1036 0z"/>
<path d="M1125 2340 c-23 -26 -13 -68 21 -80 15 -6 222 -10 507 -10 421 0 485
2 505 16 26 18 28 41 6 72 l-15 22 -503 0 c-487 0 -503 -1 -521 -20z"/>
<path d="M1037 1242 c-16 -7 -15 -11 10 -41 38 -46 283 -264 380 -338 303
-231 623 -400 973 -516 58 -19 130 -40 160 -46 30 -7 64 -16 75 -21 22 -9 235
-54 330 -69 115 -19 291 -31 460 -31 181 0 220 7 157 29 -110 38 -321 158
-394 223 -22 20 -50 27 -183 46 -300 42 -614 138 -884 271 -219 107 -493 289
-670 445 l-65 56 -165 -1 c-91 0 -174 -4 -184 -7z"/>
</g>
</svg>
