<svg width="48" height="48" viewBox="0 0 24 24" fill="none" xmlns="http://www.w3.org/2000/svg">
  <path d="M19.8 18.4L14.6 13.2C15.5 12.1 16 10.7 16 9.2C16 5.5 13.1 2.6 9.4 2.6C5.7 2.6 2.8 5.5 2.8 9.2C2.8 12.9 5.7 15.8 9.4 15.8C10.9 15.8 12.3 15.3 13.4 14.4L18.6 19.6C18.9 19.9 19.4 19.9 19.7 19.6L19.8 19.5C20.1 19.2 20.1 18.7 19.8 18.4ZM9.4 14.2C6.5 14.2 4.2 11.9 4.2 9C4.2 6.1 6.5 3.8 9.4 3.8C12.3 3.8 14.6 6.1 14.6 9C14.6 11.9 12.3 14.2 9.4 14.2Z" fill="#4A7C59"/>
  <path d="M9.4 7.2C9.1 7.2 8.8 7.5 8.8 7.8V10.2C8.8 10.5 9.1 10.8 9.4 10.8C9.7 10.8 10 10.5 10 10.2V7.8C10 7.5 9.7 7.2 9.4 7.2Z" fill="#4A7C59"/>
  <path d="M9.4 12.2C9.1 12.2 8.8 12.5 8.8 12.8V13.2C8.8 13.5 9.1 13.8 9.4 13.8C9.7 13.8 10 13.5 10 13.2V12.8C10 12.5 9.7 12.2 9.4 12.2Z" fill="#4A7C59"/>
</svg>
