<?xml version="1.0" standalone="no"?>
<!DOCTYPE svg PUBLIC "-//W3C//DTD SVG 20010904//EN"
 "http://www.w3.org/TR/2001/REC-SVG-20010904/DTD/svg10.dtd">
<svg version="1.0" xmlns="http://www.w3.org/2000/svg"
 width="289.000000pt" height="310.000000pt" viewBox="0 0 289.000000 310.000000"
 preserveAspectRatio="xMidYMid meet">

<g transform="translate(0.000000,310.000000) scale(0.100000,-0.100000)"
fill="#0F4C5C" stroke="none">
<path d="M1165 3044 c-89 -33 -155 -133 -155 -235 0 -99 41 -172 164 -294 119
-118 250 -225 275 -225 23 0 218 162 286 237 56 63 113 148 135 202 18 46 16
126 -5 179 -21 52 -103 128 -153 142 -75 20 -165 3 -227 -44 -40 -31 -47 -32
-70 -6 -25 27 -117 60 -168 59 -23 0 -60 -7 -82 -15z m545 -84 c54 -27 83 -72
88 -136 8 -99 -49 -181 -242 -348 -54 -48 -105 -86 -112 -86 -8 0 -46 28 -86
62 -204 175 -289 305 -263 405 4 16 27 47 51 70 42 41 48 43 102 43 49 0 67
-5 105 -31 26 -17 56 -42 66 -55 10 -13 23 -24 28 -24 5 0 27 19 48 41 79 82
138 98 215 59z"/>
<path d="M2147 2469 c-129 -19 -269 -65 -345 -113 -50 -31 -125 -114 -151
-165 -31 -60 -61 -186 -61 -257 0 -55 -4 -66 -37 -109 -20 -27 -51 -83 -70
-124 -18 -42 -36 -77 -41 -79 -4 -1 -24 33 -44 75 -32 67 -38 91 -42 168 -2
50 -12 113 -22 140 -24 69 -89 161 -138 197 -130 95 -326 151 -505 146 -92 -3
-95 -4 -101 -28 -12 -45 34 -219 90 -335 50 -104 120 -177 225 -232 93 -48
150 -61 295 -68 117 -6 116 -5 156 -90 26 -56 58 -181 50 -200 -2 -7 -30 -15
-61 -19 -81 -9 -178 -46 -270 -103 -64 -39 -81 -54 -83 -75 -2 -19 3 -30 18
-38 18 -9 30 -5 83 28 95 60 155 88 232 107 148 37 346 -13 493 -123 28 -21
36 -23 57 -14 55 25 25 69 -90 132 -89 49 -165 77 -235 87 -54 8 -55 9 -58 44
-7 81 63 276 125 349 l25 30 117 0 c113 0 215 12 256 29 134 58 226 128 284
219 49 77 107 229 122 319 17 112 16 113 -115 112 -55 -1 -127 -5 -159 -10z
m195 -74 c7 -8 -24 -120 -49 -175 -11 -25 -23 -56 -28 -68 -21 -69 -101 -154
-192 -205 -82 -47 -111 -55 -228 -66 -142 -13 -151 -6 -81 59 63 58 123 102
189 139 57 33 69 55 45 79 -7 7 -22 12 -33 12 -33 0 -124 -53 -194 -114 -78
-68 -96 -71 -86 -18 23 126 125 246 250 293 39 15 90 32 115 38 86 22 279 38
292 26z m-1482 -144 c278 -57 361 -126 414 -343 10 -42 -10 -35 -84 28 -106
91 -192 133 -211 103 -19 -30 -7 -48 58 -89 78 -51 201 -165 190 -176 -14 -14
-155 -4 -217 16 -95 30 -178 99 -243 202 -15 25 -97 250 -97 269 0 15 89 10
190 -10z"/>
<path d="M114 2071 c-42 -26 -72 -66 -85 -115 -8 -28 -10 -132 -6 -331 5 -303
7 -315 71 -595 33 -147 70 -225 147 -308 24 -26 64 -70 89 -98 25 -27 89 -98
143 -157 182 -197 187 -206 187 -336 0 -80 2 -92 20 -101 14 -8 26 -8 41 1 20
10 21 17 17 117 -3 81 -9 118 -25 152 -20 44 -176 225 -348 405 -134 141 -157
186 -205 404 -53 238 -59 299 -57 591 2 264 6 282 54 301 36 14 79 -6 101 -45
9 -17 24 -87 33 -156 9 -69 27 -191 39 -271 l21 -147 -20 -41 c-26 -49 -27
-96 -3 -141 10 -19 65 -93 122 -165 58 -71 132 -167 165 -212 61 -84 79 -98
109 -87 28 11 18 56 -24 109 -21 28 -64 82 -94 121 -30 39 -64 82 -76 95 -31
36 -113 149 -128 175 -17 30 -6 69 25 94 61 48 112 19 272 -156 116 -126 144
-151 234 -206 169 -103 252 -200 302 -356 16 -47 17 -85 13 -313 -6 -280 -4
-288 46 -275 23 6 24 11 30 108 18 299 13 419 -25 529 -53 156 -128 253 -269
343 -146 94 -167 112 -294 248 -138 149 -181 178 -259 178 -44 0 -46 1 -51 33
-3 17 -12 75 -21 127 -8 52 -24 154 -35 227 -10 72 -25 144 -33 160 -50 95
-151 138 -223 94z"/>
<path d="M2662 2083 c-36 -7 -98 -73 -111 -118 -7 -22 -16 -76 -21 -120 -16
-129 -58 -393 -65 -404 -3 -6 -29 -11 -57 -11 -73 0 -108 -22 -200 -124 -145
-159 -211 -219 -313 -283 -169 -104 -244 -194 -297 -352 l-33 -96 2 -263 c1
-272 4 -292 43 -292 39 0 42 19 35 252 -8 237 -3 294 37 398 48 125 96 176
273 293 77 50 129 97 225 198 174 184 209 207 273 178 26 -12 47 -47 47 -77 0
-16 -149 -220 -288 -395 -34 -43 -62 -87 -62 -97 0 -22 32 -43 53 -34 13 5
259 314 334 420 40 56 50 105 34 159 -28 89 -26 112 31 470 25 158 33 182 71
205 23 14 35 16 58 8 55 -19 59 -40 59 -335 0 -288 -6 -346 -59 -579 -45 -202
-75 -249 -332 -519 -238 -250 -255 -281 -247 -432 5 -93 23 -127 56 -107 14 9
18 31 22 117 5 91 9 111 30 140 14 19 113 131 220 248 281 309 285 316 345
618 45 232 55 331 55 568 0 210 -7 251 -55 316 -31 42 -98 62 -163 50z"/>
</g>
</svg>
